# xmcd CD database file
#
# Track frame offsets:
#	150
#	29667
#	39755
#	56275
#	76900
#	106522
#	139037
#	184332
#	189262
#	203372
#	220615
#	244915
#
# Disc length: 3863 seconds
#
# Revision: 0
# Processed by: cddbd v1.5.1PL0 Copyright (c) Steve Scherf et al.
# Submitted via: CDex 1.51
#
DISCID=900f150c
DTITLE=Various Artist - Le son sauvage - Tokyo Next Texure
DYEAR=2005
DGENRE=Jazz
TTITLE0=Arrival Time Unknown:Gnu
TTITLE1=Dawn:Ryusenkei-Body
TTITLE2=Horizontal:Ryusenkei-Body
TTITLE3=Sweet and Lovely:Ryusenkei-Body
TTITLE4=mool:sim
TTITLE5=Clear Air Turbulence:Oversight
TTITLE6=All Day in the Galaxy:Satanic Abandaned Rock and Roll Society
TTITLE7=My tog is convertible for a berceuse:Dill ensemble
TTITLE8=Wueqfeth utt norla suite 3rd “ephia”:Dill ensemble
TTITLE9=Logic forest:Dill ensemble
TTITLE10=Matsuri:mi-ne
TTITLE11=Crumbling Steeple Remix:飛頭
EXTD=YEAR: 2005
EXTT0=
EXTT1=
EXTT2=
EXTT3=
EXTT4=
EXTT5=
EXTT6=
EXTT7=
EXTT8=
EXTT9=
EXTT10=
EXTT11=
PLAYORDER=
